<?xml version="1.0" encoding="utf-8"?>
<!-- Generator: Adobe Illustrator 25.4.1, SVG Export Plug-In . SVG Version: 6.00 Build 0)  -->
<svg version="1.1" id="Calque_1" xmlns="http://www.w3.org/2000/svg" xmlns:xlink="http://www.w3.org/1999/xlink" x="0px" y="0px"
	 viewBox="0 0 500 600" style="enable-background:new 0 0 500 600;" xml:space="preserve">
<style type="text/css">
	.st0{fill:#878EAA;}
	.st1{fill:#5B6582;}
	.st2{fill:#2C374C;}
	.st3{fill:#163350;}
	.st4{fill:#000D27;}
	.st5{fill:url(#SVGID_1_);}
	.st6{fill:#000D27;fill-opacity:0;}
</style>
<g id="Layer_1">
	<rect x="12" y="6" class="st0" width="481" height="589"/>
	<path class="st1" d="M0,0v597l500,3V0H0z M450.5,418.6c-0.4,13-1.6,27.9-8.9,35.1c-3.1,3-6.8,4.1-10.3,5.6
		c-9.9,4.1-19,11.4-28,18.7l0.2-4.3c0.1-1.4-1.2-1.9-1.6-0.6c-2.7,8.6-2.6,19.8-7.9,25.1c-2.6,2.6-5.9,3-8.6,5.2
		c-4.5,3.5-7.2,11.2-12,13.6c-2.4,1.2-5,0.8-7.5,1.4c-7.9,1.8-13.9,12.1-21.7,14l-0.2-3.7c-0.1-1.7-1.6-2.3-2.3-0.9
		c-0.6,1.4-1.3,2.7-2.2,4c-0.4-2.5-0.7-5-1-7.6c-0.2-2.4-2.4-2.8-3.1-0.6l0,0c-0.1-9.4-0.3-18.8-0.6-28.1c0-1.8-1.8-2-2-0.3
		c-2.1,12.8-3.1,25.7-3.1,38.7c0,4.6-0.4,10.3-3.4,11.8c-1.7,0.9-3.5,0-4.7-2c-1-1.8-1.6-3.7-1.7-5.8c-0.1-1.9-1.6-2.9-2.6-1.8
		c-4.2,4.2-10.8,3.7-16.1,2c-6.9-2.2-15-5.1-20.4,1.5c-5.6,6.8-14.6,2-21.5,5.6c-2.9,1.5-5.4,4.5-8.3,5.6c-2.4,0.8-4.8,0.4-7.3,0.5
		c-4.8,0.3-9.5,2.8-14.4,2.7c-8.4-0.2-16.5-8-24.6-5c-1.6,0.6-3.5,1.3-4.3-1.2c-0.1-0.4-0.2-0.7-0.2-1.1l-0.8-7.8
		c-0.1-1-1.1-1-1.2,0l-0.8,9.1l-9.7-7.7c-5.3-4.2-11.4-10.7-10.6-19.5c-1.8-1.3-3.6,1.9-4,4.8c-0.4,3.3-0.1,7.2-2.3,9.2
		c-0.9,0.9-2.3,1.1-3.4,0.5c-1.4-0.7-2.4-4.7-3.2-8.5c-0.4-1.9-2.2-2-2.7-0.1c-1,3.7-2.5,7.3-3.8,7c-0.9-0.3-1.6-0.8-2.2-1.5
		c-6-6-7.3-18-8.1-28.6c-1.3-16.9-2.5-31-3.8-46.8c-0.1-0.6-0.6-0.5-0.6,0.1c0.1,17.6-1.1,35.1-3.8,52.5c-0.3,2.1-1.5,3.8-3,3.8
		c-1.7,0.1-2.2-1.7-2.7-3.4c-1-4-1.8-8.1-2.3-12.2c-0.2,1.4-0.6,2.7-1.2,4c-1.2,2.5-3,4.5-4.1,7.1c-0.2,0.5-0.4,0.9-0.7,1.3
		c-2.2,2.5-4.2-2.4-4.4-6c-0.6-9.5,0.1-19.7-1.6-28.7c-0.6-3.2-3.7-2.5-3.7,0.8c0,0.4,0,0.8,0,1.1c0.5,10.3,0.2,21.2-3.6,29.9
		c-1.7,4-5.4,7.6-8,4.6c-2-2.4-1.6-7-2.7-10.5c-0.9-2.9-2.9-4.8-4.4-7.2c-1.8-3.1-2.8-7-3.8-10.8c-3.5-13.1-7-26.1-10.6-39.2
		c-3.2-11.8,5.1-25.1,7.7-37.1c2.2-10.4,1.9-21.8,4.6-32c1-3.9,2.5-7.5,3.2-11.4c1.2-6.1,0.6-12.7,0.9-19c0.3-5.9,1.7-12.2,5-15.4
		c0.1-2.2,2-3.8,3.6-3.1s2.6,3.3,2.8,5.8c0.1,2.5-0.1,5-0.6,7.5c-1.1,7.2-1.6,14.4-1.7,21.7c0,2,1.9,2.3,2.2,0.4
		c1.1-6.5,2.1-13.1,3-19.7c1.6-12,3.1-25,8.1-34.4c1.1-2,3.3-1.1,3.4,1.5l0.7,15.1c0,0.6,0.6,0.6,0.6,0c0.5-7.8,1.3-15.5,2.6-23.1
		c0.3-1.6,0.7-3.2,1.2-4.8c0.9-2.5,3.5-1.6,3.6,1.3l0.7,20.9c0.1,1.5,1.5,1.7,1.7,0.2c0.9-6.7,2-13.5,3.3-20c0.3-1.6,2-1.2,1.9,0.5
		c-0.5,15.1-0.7,30.2-0.4,45.3c0,1.8,1.8,2,2,0.3c1.7-12.2,1.9-24.9,2-37.5c0-5.5,0.2-11.4,2-16c0.5-1.4,2-1,2.1,0.6
		c0.9,10.6,0.2,21.4-0.8,32c-0.1,1,0.9,1.4,1.1,0.3c2-10.6,1.9-22,2.1-33.1c0.3-13.9,1.3-28.6,7.1-39.6l1.4,3.9c0-3.1,1-6.1,2.9-8.6
		c-0.4,10.4-0.3,20.8,0.2,31.1c0.1,1.3,1.4,1.3,1.5,0c0.8-12.1-0.2-24.9,3.8-35.4c0.5,9.9,0.8,19.9,0.7,29.8c0,1.6,1.5,1.9,1.8,0.4
		c2.4-11.3,0.4-25.5,5.9-34.4l2.2,73.6c0.1,1.6,1.6,1.8,1.8,0.2c2.5-20.3,4-40.8,4.4-61.3c0.1-6.3,0.1-12.8,1.3-18.8l1.2,10.5
		c0.2,1.5,1.6,1.6,1.9,0.1l3.8-21.6l0.9,20.7c0,0.8,0.8,0.9,0.9,0.1l2.8-18.8c1.1,4,1.4,8.1,1.1,12.1l4.2-23.1l0.6,28
		c0,1,1,1.1,1.2,0.1l3.3-27v22.8c0.1-2.8,0.5-5.5,1.4-8.1l-0.3,17.4c0,1,0.9,1.1,1.1,0.2c1.3-9,2.7-18.1,4-27l-0.7,35.4
		c0,1.9,1.8,2.2,2.1,0.4c1.7-12.4,1.6-25.5,2.2-38.3c0.1-1.5,0.3-2.9,0.7-4.4c0.7-2.6,3.3-1.9,3.3,0.9c0,4.6,0.3,9.1,1.1,13.6
		c0.3,1.6,1.8,1.6,2.1,0l1.9-10.5c0.4-2.2,2.5-2.2,2.9-0.1c1.2,6.2,0.7,13.3,1.3,19.9c0.1,1.4,1.5,1.3,1.6,0
		c0.5-7.1,1.4-14.1,2.6-21c0.4-2.4,2.7-2.6,3.3-0.2c0.6,2.9,0.8,5.9,0.6,8.9c-0.1,8.5,0.4,16.9,1.4,25.3c0.2,2,2.2,2,2.4,0
		c1.3-11,2.1-22,2.4-33.1c0-5.7,0.5-11.4,1.3-17.1c0.5-2.8,3.2-2.1,3.1,0.8c0,0.6-0.1,1.1-0.1,1.7c-0.1,1.2,1,1.6,1.3,0.5
		c1.4-5.4,1.3-12.1,2.9-16.9c0.8-2.2,3-1.6,3.1,1l0.3,9.5l3.4-13.1c0.4-1.4,1.7-1.6,2.2-0.2c1,2.7,0.9,6.5,0.7,9.8
		c-0.4,7.4,0,14.9,1.1,22.2c0.2,1.4,1.5,1.3,1.7-0.1c1.8-14.5-0.5-30.5,4.8-43l0.3,9.2c0,0.9,0.9,1,1,0.1c0.8-5.8,2.1-11.6,3.6-17.3
		c1.6,4.5,2.2,9.2,2,13.9c0.8-5.7,1.8-11.3,3-16.8c0.2-0.8,0.6-1.4,1.2-1.4c1,0,1.3,1.8,1.3,3.2c0,6.1,0,12.2,0,18.2
		c0,1.4,1.4,1.7,1.6,0.3c1.7-10.4,3.2-20.7,4.3-31.5c0-1,0.6-1.9,1.5-2.3c1.4-0.3,1.9,2.1,2,4c0.3,3.3,0.5,6.6,0.8,9.9
		c3.6-7.2,1.1-17.8,3.8-25.7c0.2-0.7,0.5-1.3,1-1.8c0.9-0.9,2.2-0.5,3,0.6c0.8,1.2,1.4,2.6,1.7,4.1c0-0.6,0.6-1.1,1.2-1.1
		c0.3,0,0.7,0.2,0.9,0.5c0.6,1,0.9,2.2,0.9,3.4c1.2,16.3,1.1,32.7,2.5,48.9c0,0.5,0.6,0.5,0.6-0.1c-0.1-11.3,0.8-22.6,2.5-33.8
		c0.3,3.5,0.5,7,0.6,10.5c0,1.6,1.6,1.8,1.8,0.2c2.2-14.4-1.4-31,1.7-45.5c0.3,9.2,0.4,18.4,0.4,27.6c0,1,1,1.2,1.2,0.2l4.1-27.8
		c-0.4,7.2-0.7,14.4-1.1,21.7c0.6-9.7,2.7-19.3,6.3-28.3c0.2,8.8,0.5,17.7,0.8,26.5c0.1,2.3,2.3,2.4,2.5,0.1
		c0.8-10.7,0.1-22,2.5-32.3c2.2,1.2,2.3,5.7,2.1,9.2c-0.4,8.4,0.4,16.9,2.3,25.1c-0.1-6.4,0.7-12.8,2.4-19l2.2,17.9l3-15.7
		c2,3.8,1.5,9,1.3,13.8c-0.2,2.7,0,5.5,0.6,8.1c0.6,2.3,2.8,1.9,3.1-0.5l2.5-23.9c0.9,4.5,1.5,8.9,1.9,13.5c1-5,2.7-9.9,4.9-14.5
		l1.1,23.2c3.1-6.6,4.8-13.8,5.2-21.1c2,6.3,3.8,12.8,5.3,19.4c0.5,2.3,2.8,2.4,3.3,0.1c0.8-3.5,1.9-7,3.1-10.4
		c1.9,1,2.4,4.7,2.5,7.7l0.7,15.1c0,1.2,1.2,1.3,1.4,0.1c0.5-4.2,1.1-8.5,1.8-12.6c2.1,4.5,3.2,9.4,3.3,14.4
		c1.8-4.3,2.5-8.9,2.1-13.5l1.8,23.1c4.8-6.3,1.6-18.1,3.7-27c2.4,10.2,3.6,20.6,3.7,31c1.7-2.8,2.4-6,2.1-9.3
		c2.8,1.9,3.3,7.5,3.3,12.1c0.1,5.8,0.1,11.6,0.2,17.4c0,2,1.9,2.4,2.3,0.5c1.7-8.5,0.3-19,3.1-27c1.6,5.9,2.5,11.9,2.6,18
		c0,1.3,1.3,1.6,1.5,0.3c0.4-2.5,0.8-5,1.2-7.5c0.1,17.2,0.3,34.6,2.4,51.4c0.4,3.1,3.3,3.4,4,0.4c2.4-11.1-1-26.3,3.8-36.4
		c6.8,12.9,3.9,31.2,5.9,47.4c0.2,1.8,2,1.9,2.2,0.1c2.1-13.9,3-27.9,2.6-42c2.4,1.2,3,5.6,3.4,9.3c2,24,4,48,6,72.1
		c1.3,15.2,1.9,29.4,3.6,44.5C452.5,353.7,451.5,386.3,450.5,418.6z"/>
	<path class="st2" d="M0,0v597l500,3V0H0z M457.4,431.7c-0.3,6.7-1.6,15-6.1,16.3c-2.5,0.7-15.1-0.2-18.8,5.1
		c-1,1.5-1.5,3.5-2.5,4.9c-4.5,6.8-15.2,0-17.2,9.1c-0.6,3,0.3,6.3,0.2,9.4c-0.1,5-2.8,9.1-5.6,12c-7.8,8.2-17.8,11.5-27.2,8.9
		c-1.4-0.4-2.9-0.9-4.4-0.6c-4.8,1.2-6,10.4-8.7,16.4c-2,4.4-5.3,7.4-8.9,8.1c-4,0.7-8-1.4-12.1-1.6c-5-0.1-9.2,3.8-9.4,8.8
		c-0.1,1.6,0,3.2-0.3,4.7c-0.9,4.5-4.9,5.1-8.1,5.1c-12.6-0.1-25.1,3.1-36.1,9.2c-6.1,3.3-12,7.4-18.3,9.3
		c-9.1,2.7-18.5,0.7-27.6-1.3c-1.9-0.4-3.9-0.9-5.3-2.9s-1.8-5.1-2.1-8c-0.6-5.3-1.2-10.7-1.8-16c-0.2-2.1-2.3-2.2-2.6-0.2
		l-2.3,13.2l-2.2-14c-0.2-1.6-1.8-1.5-1.9,0.1c-0.8,7.7,1.5,17.1-2.3,22.5c-1.9,2.7-4.7,3.2-7.3,3.5c-9.5,1-19.1,0.4-28.3-2
		c-7.3-1.9-14.7-4.8-22.1-3.3c-10.3-4.4-21-10.4-28.7-21.4c-2.2-3.1-4.2-6.6-6.6-9.4c-4.9-5.7-11.1-7.9-16.4-12.8
		c-4.6-4.5-8.1-10-10.2-16.1c-1.1-3.1-2-6.4-3.4-9.2c-1.1-2-2.4-3.7-3.4-5.8c-2.6-5.4-2.4-12.4-2.9-19c-0.1-1.5-1.6-1.5-1.8,0
		c-0.4,4.6-0.9,9.2-1.5,13.7c-1.1-0.1-1.7-2.1-1.9-3.7c-1.4-9-2.8-17.9-4.3-26.7c-0.2-1.3-1.5-1.1-1.6,0.2
		c-0.3,7.3-0.7,14.5-1.3,21.7c-2.2-2.2-3.1-6.2-3.8-10c-5.7-30.1-9-61.1-11.3-92.1c-1.8-23.5-11.7-45.7-12.4-69.4
		c-1.4-49.2-12.8-96.3-7.9-145c0.2-1.3,0.8-2.5,1.7-3.4c0.7-0.7,1.7,0,1.7,1.3c0,21,2.1,61.4,5.3,83.9c0.2,1.2,1.4,1.1,1.4-0.1
		c0.8-16,0.9-46.9,1-57.4c0.1-7.8,0-15.8,1.2-23.3c0.3-2.2,2.6-1.8,2.6,0.4v0.1c0,16.1,0.1,32.1,0.1,48.2c0,1.1,1.1,1.3,1.2,0.2
		c2-13.7,2.9-27.6,2.8-41.5c0-5.8-0.2-11.9,0.7-17.4c0.3-2,2.3-1.8,2.4,0.3c1.4,24.7-1,49.8,1.1,74.3c0.1,0.8,0.9,0.8,0.9-0.1
		l0.4-14.1c0.4-14.4,0.9-29.3,4.8-42.4c0.4-1.5,1.9-1.6,2.5-0.2c6.2,15,7.9,33.4,8.6,51.2c0.4,8.6,0.6,17.2,0.6,25.9
		c0,1.5,1.5,1.8,1.7,0.3c1.1-8.3,1.8-16.6,1.9-24.9c0.1-9.8-0.3-20.2,2.1-29.1c0.4-1.6,1.9-1.6,2.3,0c2.2,8.6,3.4,17.5,3.6,26.4
		c0.1,5.6-0.2,11.4,0.1,17c0.1,1.5,1.6,1.6,1.7,0.1c0.6-4.7,0.9-9.5,1-14.2c0-1.6,1.6-1.9,1.9-0.4c1.7,7.8,2,16.2,2.1,24.5
		c0,1.2,1.2,1.5,1.4,0.4c1-4.1,1.7-8.2,2.2-12.3c0.2-1.8,2-1.6,2,0.2v0.1l0.5,32.7c0,1.7,1.6,2.1,2,0.5c2.9-11.2,1.7-24.5,3.1-36.6
		c0.1-1.1,1.2-1.1,1.4,0c1.8,16.1,0.1,33,1,49.4c0.1,1.1,1.2,1.3,1.4,0.2c1.6-8.7,0.4-18.3,0.9-27.6c0.1-1.4,1.4-1.4,1.6-0.1
		c0.8,8.6-0.1,17.6,0.1,26.4c0.1,2,2,2.2,2.2,0.2c1.1-11.4-1-23.9,1.3-35.1l0.1,16.7c0,1.4,1.3,1.6,1.6,0.4
		c1.3-5.6,0.3-12.6,1.7-18.2c0.2-0.9,1.1-0.7,1.1,0.3l0.3,37.2c0,1.8,1.7,2.1,2,0.4c1.8-10.1,0.3-21.7,1.5-32.3c0.1-0.9,1-0.9,1.1,0
		l1.5,19.2c0.1,1.3,1.3,1.4,1.5,0.1c1.2-7.8,0.7-13.5,1.7-22.9c0.1-0.6,0.6-0.5,0.7,0.1c0.2,8.4,0.7,16.7,1.5,25
		c0.1,1.2,1.3,1.2,1.4,0.1c3.4-23.9,0.1-49.2,1.9-73.6c0.1-1.2,1.2-1.3,1.4-0.1c1.7,10.3,2.6,20.9,3.4,31.4c0.1,1,1.1,1.2,1.3,0.1
		c1.2-6.2,2-12.6,2.4-18.9c-0.3,4.5-0.2,9.1,0.4,13.6c0.2,1.5,1.6,1.8,2,0.3c1-3.3,1.8-6.7,2.3-10.1c2.5-17.3,5.9-34.2,8.6-51.4
		c0.3-1.7,0.6-3.6,1.5-4.8c0.4-0.7,1.2-1,1.9-0.8c1.4,0.5,1.7,2.9,1.8,4.9l0.9,12.5c1.2-2.4,1.8-5,1.8-7.7c0.9-0.9,1.9,1,2.2,2.5
		c3.1,16.4,4.7,33.1,4.7,49.9c0,0.6,0.6,0.8,0.7,0.2c1-4.2,1.6-8.4,1.6-12.7c-0.1-4-0.7-8.5,0.9-11.6c1.1,0.4,1.3,2.5,1.3,4.1
		c0,6.1,0,12.2-0.1,18.3c0,2.7,0,5.4,0.2,8.1c0.1,1.2,1.3,1.3,1.5,0.1c1.5-9.7,2.1-19.5,1.9-29.3c0-1,1-1.1,1.1-0.1
		c0.5,6.3-0.6,13.3,0.5,19.2c0.2,1,1.2,0.9,1.2-0.1c0.5-6.5,1.1-13,1.8-19.5c0-1.2,0.4-2.3,1-3.3c0.3-0.5,0.9-0.6,1.4-0.3
		c0,0,0.1,0,0.1,0.1c0.5,0.7,0.7,1.5,0.6,2.4c0,7.2,0.5,14.4,1.6,21.5c0.1,1,1.1,1.1,1.3,0.1c0.1-0.3,0.1-0.7,0.1-1
		c0.6-6.9-0.6-14.4,0.6-20.9c0.2-1,1.2-0.9,1.3,0.2c0.6,9.6,0.8,19.2,0.6,28.8c-0.1,2.8-0.1,5.6,0.2,8.4c0.2,1.5,1.6,1.5,1.8,0
		c0.3-2.6,0.4-5.1,0.3-7.7l-0.1-26.1v-0.1c0-1.5,1.5-1.6,1.6-0.1c1.2,15.3,1.6,30.6,1.3,46c0,1,0.9,1.2,1.1,0.3
		c0.5-2.6,0.7-5.3,0.7-7.9c0.1-14.6,0.2-29.2,0.3-43.7c0.3,0.7,0.5,1.4,0.7,2.1c0.2,0.6,0.7,0.5,0.8-0.2c0.2-3.5,0.6-7,1.2-10.5
		c0.7,5.5,0.3,12.4,0.6,17.6c0,0.7,0.8,0.7,0.8,0c0.3-7.2,0.9-14.5,2.6-21.3c2.5,3.6,3,9.2,3.1,14.4c0.1,4.1,0.1,8.4,0.9,12.2
		c0.1,0.7,0.8,0.5,0.8-0.2c0-8.9,0.9-17.7,2.6-26.4c1.2,0.1,1.6,2.3,1.7,4l1.6,27c0,0.7,0.7,0.7,0.8,0c0.9-10.6,1.4-21.3,1.4-31.9
		c0-2.9,0.4-5.8,1.2-8.6c0.2-0.9,0.7-1.8,1.2-2.5c0.4-0.6,1.1-0.9,1.8-0.7c0.9,0.4,1.1,1.5,1.3,2.6c2.2,14,3.7,28.2,4.5,42.4
		c0.1,1.3,1.3,1.5,1.5,0.3c1.8-7.5,2-15.8,2.3-23.8c1.3,8.6-1.2,18.2,0.2,26.4c0.2,1.1,1.3,1.1,1.4-0.1c1.2-9.8,1.8-19.8,2-29.8
		c0.1-3.7,0.1-7.7,1.1-11c0.4-1.5,1.9-1.3,2.1,0.3c0.3,1.8,0.5,3.6,0.6,5.4c0.1,0.9,0.9,1,1,0.1c1.5-6.8,0.7-14.8,2.1-21.4
		c0.4-1.7,2-1.4,2.1,0.3c0.8,11.7,1.6,23.4,2.3,35.1c0.1,1.3,1.3,1.5,1.6,0.3c1.3-5.7-0.3-13.1,0.9-19.2c1.9,12.7,2.8,25.5,2.8,38.4
		c0,1.1,1,1.3,1.2,0.2c1.8-11.3,2.5-22.7,2.3-34.1c0-0.5,0.5-0.6,0.5-0.1l2.6,17c0.2,1.4,1.5,1.4,1.7,0c1.5-9.3,0.3-19.6,1.2-29.1
		c0.2-2.2,2.3-2.3,2.6-0.2l0.4,2.3c0.2,1.1,1.2,1.1,1.4,0l1.8-10.7l0.9,4.4c0.1,0.7,0.9,0.7,0.9-0.1c0.1-1.5,0.2-2.9,0.1-4.4
		c1.1,5.1,2.2,10.2,3.4,15.2c0.3,1.4,1.8,1.3,1.9-0.2c0.7-6.6-0.4-14.1,2.5-19.1l1.4,7.9c0.1,0.8,0.9,0.7,1-0.1
		c0.1-1.9,0.2-3.8,0.5-5.7c0.3-1.6,1.8-1.7,2.2-0.1l0.4,2.1c0.2,1,1.2,1,1.3-0.1c0.4-3.3,1.3-6.6,2.6-9.7c0.6,3,1.2,12.5,1.8,19.8
		c0.1,1.5,1.5,1.5,1.7,0.1c0.8-6.6,1.8-15.8,2.5-22.1c0.2-1.7,1.8-1.8,2.1-0.2c0.1,0.7,0.3,1.4,0.4,2.1c0.2,1.2,1.4,1.2,1.6-0.1
		c0.9-5.4,1.9-10.8,3-16.2c0.9,1.7,1.4,3.5,1.6,5.3c0.2,1.4,1.5,1.7,1.9,0.3l0,0l5.2-18.6c0.4-1.5,1.9-1.3,2.2,0.3
		c0.2,1.2,0.4,2.4,0.6,3.7c0.3,1.6,1.8,1.7,2.2,0.1l1-4.2c0.2-0.8,0.9-0.8,1.1,0l1.6,5.5c0.3,1,1.2,0.9,1.5-0.1l1.1-4.7
		c0.3-0.9,1-1.7,1.8-2.3c1.5-1.2,3.3,0.1,3.7,2.6l0.2,2.4c0.1,0.8,0.9,0.8,0.9,0l0.4-3.4c0.2-0.8,1-0.8,1.2,0.1
		c0.4,2.3,0.7,4.7,0.9,7c0,0.6,0.6,0.6,0.7,0l0.7-5.4c1.9,5.1,1.8,11.2,2.8,16.8c0.1,0.6,0.7,0.5,0.7-0.1c0.1-3.3,0.4-6.6,1-9.8
		c1.2,1.2,0.9,3.9,0.7,6c-0.2,1.9-0.2,3.8,0,5.6c0.1,1,1.1,1.2,1.3,0.2c0.4-1.8,0.6-3.6,0.6-5.5c-0.1-2,0.1-3.9,0.5-5.8
		c0.2-0.7,0.9-0.5,0.9,0.2c0.2,6.4,0.9,12.8,1.9,19.1c0.2,1.2,1.4,1.2,1.5-0.1c0.6-5,0.1-10.4,1.3-15.1c0.2-0.6,0.4-1.2,0.9-1.3
		c0.3,0,0.7,0.2,0.8,0.5c0.4,0.8,0.7,1.7,0.7,2.6l1.3,13.7c0.1,0.8,0.8,0.8,0.9,0c0.6-4.6,1.2-9.2,2-13.8c0.6,1.7,1.1,3.5,1.5,5.2
		c0.1,0.5,0.6,0.4,0.7-0.1c0.5-3.8,1.2-7.5,2.2-11.2l1.2,11c0.1,0.6,0.7,0.7,0.8,0l1.2-9.4c1.5,1.5,1.7,4.5,1.8,7.1
		c0.4,12.1,0.7,24.2,0.7,36.4c0,0.9,0.8,1.1,1,0.2c2.7-12.5,0.4-26.9,2.7-39.9c0.6-0.3,0.9,0.9,1,1.8l0.5,6c0,0.5,0.5,0.5,0.6,0
		c0.3-2.7,0.9-5.4,1.8-8l0.5,14.6c0,0.7,0.7,0.8,0.8,0.1c0.4-2.9,0.7-5.8,0.7-8.8l2.1,30.4c0.1,0.9,0.9,0.9,1,0.1
		c1.4-7.4-0.4-16.1,1.4-23.2c0.2-0.8,1.1-0.7,1.2,0.2c0.7,8-0.6,16.6,0.9,24.2c0.1,0.8,0.9,0.7,1-0.1l1.7-18.7l0.2-0.7
		c0.3-1.3,1.6-1.1,1.8,0.3l2.3,22.9c0.1,1.1,1.2,1,1.2-0.1c0.3-8.4-1.3-17.3,1.6-24.4l1.5,23.9c0.1,1,1,1,1.1,0.1
		c0.4-3.5,1-7.3,1.5-8.2c0.5,8.2,0.9,16.4,1.1,24.6c0,1.6,1.6,1.9,1.9,0.3c0.9-5.2,0.6-11.1,1.6-16.3c0.2-1.2,1.4-1,1.4,0.3
		c0.1,2.3,0.2,4.6,0.3,6.8c0,0.6,0.5,0.7,0.7,0.2l1.6-4.4l0.3,7.6c0,1.2,1.2,1.3,1.4,0.1c0.6-4.5-0.1-9.8,1.5-13.9l0.2,17.1
		c0,1.4,1.3,1.7,1.6,0.4c0.7-3.2,0.5-7.2,1.4-10.5c0.2-0.8,0.9-0.7,1.1,0.1c0.4,2.4,0.7,4.8,0.9,7.2c0.1,1.1,1.1,1.4,1.5,0.4
		c0.9-2.6,1.4-5.3,1.5-8.1l1.7,11.2c0.2,1.1,1.1,1.2,1.4,0.3l0.5-1.5c0.4-1.1,1.5-1.2,2-0.1c1.1,2.8,1,7.2,2.8,9.4
		c0.9,1,2,1.4,2.9,2.3c1.1,1.2,1.7,3.1,2.2,4.9c1.1,3.4,1.9,6.9,2.5,10.4c1,6.2,0.6,12.9,1.8,19c0.2,1.1,1.2,1.2,1.5,0.2
		c1.1-3.1,1.8-6.4,1.9-9.7c0.7,7.2,1.3,14.4,1.9,21.5C455.1,295.4,460.8,363.7,457.4,431.7z"/>
	<path class="st3" d="M0,0v599l500,1V0H0z M461.3,410.5c-0.5,16.9-1.8,36.3-10.3,45.6c-3.5,3.9-7.8,5.4-11.9,7.3
		c-11.5,5.4-22,14.9-32.5,24.3l0.2-5.6c0.1-1.8-1.5-2.5-1.9-0.8c-3.1,11.2-3,25.8-9.1,32.6c-3,3.4-6.8,4-10,6.8
		c-5.2,4.6-8.3,14.6-14,17.6c-2.8,1.5-5.8,1.1-8.7,1.8c-9.1,2.3-16.1,15.7-25.2,18.1l-0.2-4.8c-0.1-2.2-1.9-3-2.6-1.1
		c-0.7,1.8-1.5,3.5-2.6,5.2c-0.5-3.2-0.9-6.5-1.1-9.9c-0.3-3.1-2.8-3.7-3.6-0.8l0,0c-0.1-12.2-0.4-24.4-0.7-36.6
		c-0.1-2.3-2.1-2.6-2.4-0.4c-2.4,16.6-3.6,33.4-3.6,50.2c0,6-0.4,13.4-3.9,15.4c-2,1.1-4.1,0-5.5-2.5c-1.2-2.3-1.8-4.9-1.9-7.5
		c-0.2-2.5-1.8-3.7-3.1-2.3c-4.9,5.4-12.5,4.8-18.7,2.6c-8-2.9-17.4-6.6-23.7,2c-6.5,8.9-17,2.5-25,7.2c-3.4,2-6.2,5.9-9.7,7.2
		c-2.8,1.1-5.6,0.5-8.4,0.7c-5.6,0.3-11.1,3.6-16.7,3.5c-9.7-0.2-19.2-10.4-28.6-6.5c-1.8,0.7-4.1,1.8-5-1.6
		c-0.1-0.5-0.2-0.9-0.2-1.4l-1-10.1c-0.1-1.4-1.3-1.3-1.4,0l-1,11.8l-11.2-10c-6.2-5.5-13.3-13.9-12.4-25.4
		c-2.1-1.7-4.2,2.4-4.7,6.2c-0.5,4.3-0.2,9.4-2.7,12c-1,1.1-2.7,1.4-4,0.6c-1.7-0.9-2.8-6.1-3.8-11c-0.5-2.5-2.6-2.6-3.2-0.2
		c-1.2,4.8-2.9,9.5-4.4,9.1c-1-0.4-1.9-1.1-2.6-1.9c-6.9-7.8-8.5-23.3-9.4-37.1c-1.5-21.9-2.9-40.3-4.4-60.8
		c-0.1-0.8-0.7-0.7-0.7,0.1c0.1,22.8-1.3,45.6-4.4,68.2c-0.3,2.8-1.8,4.9-3.5,5c-1.9,0.1-2.6-2.3-3.1-4.5
		c-1.2-5.2-2.1-10.5-2.7-15.8c-0.2,1.8-0.6,3.5-1.2,5.1c-1.4,3.3-3.5,5.8-4.8,9.3c-0.2,0.6-0.5,1.2-0.8,1.7c-2.6,3.3-4.9-3-5.2-7.8
		c-0.7-12.4,0.1-25.6-1.8-37.3c-0.7-4.1-4.3-3.2-4.2,1.1c0,0.5,0,1,0.1,1.5c0.6,13.3,0.2,27.5-4.2,38.8c-2,5.2-6.3,9.8-9.2,6
		c-2.4-3-1.9-9.1-3.2-13.6c-1.1-3.8-3.3-6.3-5.1-9.4c-2.2-4-3.4-9-4.6-14l-12.3-50.9c-3.7-15.3,5.9-32.6,8.9-48.3
		c2.6-13.5,2.2-28.3,5.4-41.5c1.2-5,2.9-9.7,3.8-14.9c1.4-8,0.7-16.5,1.1-24.7c0.3-7.6,2-15.9,5.8-20c0.2-2.9,2.4-5,4.2-4.1
		s3.1,4.3,3.3,7.5c0.1,3.2-0.1,6.5-0.7,9.7c-1.2,9.3-1.9,18.7-2,28.1c0,2.5,2.2,3,2.6,0.6c1.3-8.5,2.5-17,3.5-25.6
		c1.9-15.6,3.6-32.5,9.4-44.7c1.2-2.7,3.8-1.4,4,2l0.8,19.7c0,0.8,0.7,0.8,0.7,0c0.5-10.1,1.5-20.1,3-30c0.3-2.1,0.8-4.2,1.4-6.2
		c1.1-3.2,4.1-2,4.2,1.7l0.8,27.1c0.1,2,1.8,2.2,2,0.2c1.1-8.8,2.3-17.5,3.8-26c0.4-2.1,2.3-1.6,2.2,0.6
		c-0.6,19.6-0.8,39.2-0.5,58.9c0,2.3,2.1,2.6,2.3,0.3c1.9-15.9,2.2-32.4,2.3-48.7c0-7.1,0.2-14.8,2.3-20.8c0.6-1.8,2.3-1.2,2.5,0.8
		c1.1,13.8,0.3,27.8-0.9,41.6c-0.1,1.4,1.1,1.8,1.3,0.5c2.3-13.8,2.2-28.6,2.5-43.1c0.3-18,1.5-37.2,8.2-51.4l1.7,5.1
		c0-4,1.2-7.9,3.4-11.2c-0.4,13.5-0.4,27,0.2,40.4c0.1,1.7,1.6,1.7,1.7,0c1-15.8-0.2-32.3,4.4-46c0.6,12.9,0.9,25.8,0.8,38.8
		c0,2,1.7,2.5,2.1,0.5c2.8-14.7,0.5-33.1,6.8-44.7l2.6,95.6c0.1,2.1,1.9,2.3,2.1,0.2c2.9-26.3,4.6-52.9,5.1-79.6
		c0.1-8.2,0.2-16.6,1.5-24.5l1.3,13.5c0.2,2,1.9,2.1,2.2,0.2l4.4-28.1l1,26.9c0,1.1,1,1.2,1.1,0.1l3.3-24.4
		c1.2,5.2,1.7,10.5,1.3,15.8l4.9-30.1l0.7,36.4c0,1.4,1.2,1.5,1.4,0.2l3.9-35.1v29.6c0.1-3.6,0.6-7.1,1.6-10.6l-0.4,22.6
		c0,1.3,1.1,1.5,1.2,0.2c1.6-11.7,3.2-23.5,4.7-35l-0.8,45.9c0,2.4,2.1,2.8,2.4,0.5c2-16.1,1.9-33.2,2.6-49.7
		c0.1-1.9,0.3-3.8,0.8-5.7c0.8-3.4,3.8-2.4,3.8,1.2c0,5.9,0.4,11.8,1.3,17.6c0.3,2.1,2.1,2.1,2.4,0l2.2-13.7
		c0.4-2.8,2.9-2.9,3.4-0.1c1.4,8,0.8,17.3,1.5,25.9c0.1,1.8,1.7,1.7,1.8,0c0.6-9.2,1.6-18.3,3-27.3c0.5-3.2,3.2-3.4,3.9-0.3
		c0.6,3.8,0.9,7.7,0.8,11.5c-0.1,11,0.4,22,1.6,32.9c0.3,2.6,2.5,2.6,2.8,0c1.5-14.2,2.4-28.6,2.9-43.1c0.2-7.4,0.4-15.1,1.5-22.2
		c0.6-3.6,3.7-2.7,3.6,1c0,0.7-0.1,1.4-0.1,2.2c-0.1,1.5,1.2,2,1.5,0.6c1.6-7.1,1.5-15.8,3.4-22c0.9-2.9,3.5-2,3.6,1.2l0.3,12.4
		l4-17c0.4-1.9,2-2,2.6-0.2c1.1,3.5,1,8.4,0.8,12.7c-0.4,9.6,0,19.3,1.3,28.9c0.2,1.8,1.8,1.7,2-0.1c2.1-18.8-0.5-39.6,5.6-55.8
		l0.3,11.9c0,1.2,1.1,1.3,1.2,0.2c1-7.6,2.4-15,4.2-22.4c1.8,5.8,2.6,11.9,2.3,18c1-7.4,2.1-14.7,3.5-21.9c0.2-1.1,0.8-1.9,1.4-1.9
		c1.2,0,1.5,2.4,1.5,4.2v23.7c0,1.8,1.6,2.2,1.9,0.4c2-13.5,3.7-26.9,5-40.9c0.1-1.5,0.8-2.8,1.8-3c1.6-0.4,2.2,2.8,2.4,5.2
		l0.9,12.8c4.1-9.3,1.2-23.1,4.4-33.4c0.2-0.8,0.6-1.6,1.1-2.3c1-1.2,2.5-0.6,3.5,0.8c0.9,1.6,1.6,3.4,2,5.3
		c0.2-1.6,1.6-1.8,2.4-0.8c0.7,1.3,1.1,2.8,1,4.4c1.4,21.1,1.2,42.5,2.9,63.5c0,0.7,0.7,0.6,0.6-0.1c-0.1-14.8,0.9-29.5,3-44.1
		c0.4,4.5,0.6,9.1,0.7,13.7c0,2.1,1.8,2.3,2.1,0.3c2.6-18.8-1.6-40.2,2-59.1c0.3,11.9,0.5,23.9,0.5,35.8c0,1.4,1.2,1.6,1.4,0.2
		l4.8-36.1c-0.4,9.4-0.9,18.8-1.3,28.1c0.6-12.6,3.1-25,7.2-36.8c0.2,11.4,0.6,23,1,34.5c0.1,3,2.7,3.1,2.9,0.1
		c0.9-13.9,0.1-28.6,2.9-41.9c2.6,1.5,2.6,7.4,2.5,11.9c-0.5,10.9,0.4,21.9,2.7,32.6c-0.1-8.3,0.8-16.6,2.8-24.6l2.5,23.3l3.4-20.4
		c2.3,4.9,1.7,11.8,1.5,17.9c-0.2,3.6,0.1,7.1,0.8,10.6c0.7,3,3.3,2.5,3.6-0.6l2.9-31c1,5.7,1.8,11.6,2.2,17.5
		c1.2-6.5,3.1-12.8,5.7-18.9l1.2,30.2c3.6-8.7,5.6-18,6.1-27.4c2.3,8.2,4.4,16.6,6.2,25.2c0.6,3,3.2,3,3.9,0c1-4.6,2.2-9.1,3.6-13.5
		c2.2,1.3,2.8,6.1,2.9,10l0.8,19.6c0.1,1.6,1.4,1.7,1.6,0.1c0.5-5.5,1.2-11,2.1-16.4c2.4,6,3.7,12.3,3.8,18.7
		c2.1-5.6,2.9-11.6,2.5-17.6c0.7,10,1.4,20,2.1,30.1c5.5-8.2,1.9-23.5,4.3-35.1c2.7,13.2,4.2,26.7,4.3,40.3c2-3.7,2.8-7.9,2.5-12.1
		c3.3,2.5,3.8,9.7,3.9,15.7c0.1,7.5,0.2,15.1,0.2,22.6c0,2.6,2.3,3.1,2.7,0.6c2-11,0.3-24.6,3.6-35.1c1.9,7.6,2.9,15.5,3.1,23.3
		c0,1.7,1.5,2,1.8,0.3c0.5-3.2,1-6.5,1.4-9.8c0.1,22.3,0.3,44.9,2.8,66.8c0.5,4,3.9,4.4,4.6,0.5c2.8-14.5-1.1-34.2,4.5-47.2
		c7.9,16.7,4.5,40.6,6.8,61.7c0.3,2.3,2.3,2.4,2.6,0.1c2.5-18,3.5-36.2,3.1-54.4c2.8,1.6,3.5,7.3,3.9,12c2.3,31.2,4.7,62.4,7,93.6
		c1.5,19.8,2.2,38.2,4.2,57.8C463.7,326.1,462.5,368.5,461.3,410.5z"/>
	<path class="st4" d="M254.2,438l2.2,11.9l1.4,11.1l0.1,3.6l0.3,3.5l0.7,2l2.4,2.6l2.6,2.3l2.6,1.1l1.5,4c0.4-0.9,0.7-1.8,1-2.7
		c0-0.5,0.4-3.1,0.4-3.1l1-4.3l1.5-7.8l-1.1-6.8l-1.9-5.9v-7.3c0,0,0.1-3.8,0.1-5.4s0.4-4.5,0.5-10c0.1-3.1-0.3-6.3-1.3-9.3l-0.6-4
		l-4.4-3.4c0,0-1.5-2.5-1.9-3.6s-5.1-3.2-5.7-3s-1.1-3.4-3.2-5.9s-0.6-3.8,1.3-3.2s3-5.9,3-7.6s-0.2-2.3-0.9-7.6
		s-1.9-10.1-10.8-10.1s-9.1,4.6-9.7,8.2s-1.7,2.3-1.5,4.9s1.3,3.4,1.3,3.4c0.1,2.2,0.7,4.3,1.6,6.3l0.5,3l-1.3,0.6H233
		c-0.9-0.3-1.9-0.6-2.8-1.1l-2.1-0.8l-0.4-0.9l-1.7-0.6h-1.7l-1.9,1.3h-0.9l-1.7,0.2l-1.5-0.4c-1.5-0.4-1.5-0.2-1.5-0.2l-0.8-0.2
		h-1.9l-4.4,0.6l-2.5,0.8l-0.9,0.6l-1.9,3.2l-0.4,3.4c-0.4,1.1-0.8,2.2-1.1,3.4c0,0.6-0.2,3.6-0.2,4.2v1.1l-1.9,0.6l-2.3,3.4
		l-1.1,3.6v2.3l0.2,2.3l1.3,1.1v1.5l-2.5,3.4l-0.2,4.6l-0.2,1.5l-1.3,4l0.9,2.1c0.2,2.1,0,4.1-0.6,6.1c-1.1,2.5-0.4,3.4-0.4,3.4v2.3
		c0,2.3,1.5,2.3,1.5,2.3l4.2,2.1l1.5,2.5c0.8,0.5,1.5,1.2,2.1,1.9c0.6,0.7,1.4,1.2,2.3,1.5c0,0,1.5,1.1,1.7,1.9s0.8,0.9,0.8,0.9
		l1.7,2.1l-0.2,1.5l-1.9,3.2c-0.2,0.8-0.2,1.7-0.2,2.5v1.7c0,0,0.4,10.4,0.4,11.8l1.9,3.6l0.4,3.2v2.5l-0.4,3.6v3l-0.4,4.4v4.2
		l-1.1,5.3l1.3,3l-2.1,3.6l-1.3,0.8l-0.6,5.3v2.5c0,0,0.4,1.3,0.6,2.1c0.2,0.8,0.2,1.6,0.2,2.5c0,0.4-0.2,0.7-0.4,1
		c-0.5,1-1,1.9-1.7,2.8c-0.6,0.6,0,4.2,0,4.2v2.3l0.2,3l-0.4,1.5l-0.2,4.4v2.5c0,0.6-0.2,2.7-0.2,2.7l0.4,3.6l1.3,2.8v1.9
		c0,1.5,0.1,3,0.2,4.4c0.1,0.7,0.1,1.4,0,2.1l0.4,1.5l-0.2,2.1l-1.1,3c-0.1,0.6-0.2,1.1-0.2,1.7c0,1.8,0.2,3.5,0.4,5.3
		c0.2,0.7,0.5,1.4,0.8,2.1c0.2,0.6,0.6,2.1,0.6,2.1l3.8,0.2h3.8c0.7-0.1,1.4-0.3,2.1-0.6c0.6-0.4,1.7-0.4,3.2-1.5s1.7-1,1.7-1
		l1.1-0.6c0,0,0.6-1,2.5-5.3s1.1-1,1.7-1.7c0.6-0.5,1.4-0.9,2.1-1.3c0.7-0.6,1.5-1.2,2.3-1.7c0.7-0.4,1.2-0.9,1.7-1.5
		c0,0,1.7-2.1,1.7-3c0-0.8-0.1-1.6-0.4-2.3c-0.4-1.3,0-1.1,0-1.7v-1.9c-1.1-0.2-2.2-0.2-3.4-0.2h-1.3l-3,0.6c-1,0.2-2,0.3-3,0.2
		c0,0-0.2-1.7-0.2-2.8s0.9-1.3,0.9-1.9c0-0.5,0.1-1,0.2-1.5c0.2-1.3,0.4-2.5,0.4-3.8v-1.1l-1.5-0.2c0,0-0.2-0.8-0.4-1.5s0-0.8,0.8-4
		s0-1.3,0-1.9V550c0-2.3,1.1-2.5,1.1-3.2s0.6-2.3,0.9-3.4s0,0,0.4-2.5c0.3-1,0.3-2,0.2-3v-1.3c0,0,0.2-1.9,0.2-2.8s1.1-2.7,1.9-4.9
		s0.2-1.5,0.6-2.7c0.4-1,0.6-2,0.6-3c-0.1-1,0.1-2,0.4-3c0.4-0.6,1.1-2.7,1.5-3.4s1.5-3.4,1.9-4s0.4-1.9,0.9-2.8s0.4-1,1.1-2.5
		s0.4-1.1,1.1-2.5s0.4-1.7,1.5-4.2s0.6-1.3,0.6-1.3l5.1-4.2c0,0,4.2,4.6,4.2,5.3c0,0.6,0.1,1.1,0.2,1.7l4.9,2.3l1.5,1.9l1.7,1.1
		l1,0.2l1.9,1l1.3,1.5l2.3,2.5l-0.2,0.8l-0.6,1.3l-0.6,1.7l0.4,2.8v1.5l-1.1,1.9l-3.8,2.7l-0.7,1.6v5.1l-0.9,4.7v6.5l-0.2,1.3
		l-2.1,1l-1.1,1.3v3l-0.9,3l-0.4,7.6c0,1.2,0.1,2.4,0.2,3.6c0.2,1.3,0.2,1.1,0.4,2.3c0.1,0.6,0.2,1.1,0.4,1.7l0.8,0.6
		c0,0,1.3,1.1,2.1,0.8s3,0,4.9-0.2s1,0,1,0l4.6-0.6c0,0,3.8-2.5,6.1-3.8s3.6-1.3,5.1-1.9c1.2-0.5,2.5-0.9,3.8-1.3
		c1.5-0.7,2.9-1.5,4.2-2.3c0,0,0.4-3.2,0.6-3.8c0-0.7-0.1-1.5-0.4-2.1c0,0-0.8-2.1-1.3-3.4l-2.3-1.1H278l-2.1,0.6l-1.9-1.7l-1.5-0.8
		l0.2-2.3l0.9-0.2c0,0,0.8-2.3,1.1-3c0.4-0.9,0.8-1.8,1-2.8c0.1-0.8,0.2-1.7,0.2-2.5c0,0,1.5-2.3,2.3-3.6s0.4-1.5,0.4-1.5
		s0.4-2.8,0.4-3.4c0-0.1,0-0.2,0-0.3c-0.3,0.5-0.6,1.1-0.9,1.6l-0.2,1.3c0,0-0.9,0-1.7,1.7l-0.9,1.7c0,0.4-0.1,0.7-0.2,1.1
		c-0.2,0.6-0.2,0.6-0.9,2.3s-0.2,1.5-1,2.5s-0.6,1.3-1.3,2.5c-0.5,0.8-0.9,1.8-1.1,2.8v2.1l-0.4,2.1l-0.4-5.7l1.1-2.8v-2.5
		c0,0-0.9-0.8,1-1.9s2.3-4.4,2.3-4.4s0.2-1.9,0.8-2.1s2.8-5.5,2.8-5.5s-1.3-1.7,0-2.1s3.8-5.1,3.8-5.1l-0.9,3.6l-0.2,1
		c0,0-0.4,1.1-0.8,1.9s-0.2,1.7-0.6,3c0,0,1.9-1.7,2.1-2.8s1.5-4.4,1.5-5.1c0.1-0.5,0.3-1,0.6-1.5l0.8-1.1v-3c0-0.6,0.4-3.4,0.4-4.9
		s-0.6-1.3-0.6-1.3s-1-1.3-2.5-2.7s-0.6-0.9-0.6-0.9s-1.5-2.5-2.1-3.4c-0.4-0.7-0.7-1.5-0.8-2.3l-1.7-2.3l-0.2-1.1l-1.3-1.9
		c0,0-0.2-3-0.2-4.4s-1.1-1-1.1-1l-0.8-0.4c-0.9-0.4-1.7-1-3-1.7s-0.4-2.1-0.4-2.1c-0.8-1.1-1.8-2.2-2.8-3.2c-0.6-0.4,0,0,0-0.6
		c-0.1-0.5-0.3-0.9-0.6-1.3c-1.2-1.1-2.5-2.1-3.8-3l0.9,1.9c0.8,0.6,2.5,2.3,2.5,2.3s0.2,0.8,0.4,1.5s1,3,1,3l-3-3.3l-1.5-2.1
		l-0.8-1l-0.9-1.3l-1-1.3l1-0.4c-0.6-0.4-1.2-0.9-1.7-1.5c0,0-0.8-0.6-1.5-1.1c-0.3-0.2-0.5-0.7-0.2-1c0,0,0,0,0,0l-0.4-2.1
		c-0.2-0.9-0.3-1.8-0.2-2.7v-8.9c-0.3-1.4-0.8-2.7-1.3-4l-0.4-0.8c-0.4-0.9-0.2-1.1-0.2-1.1v-4.6c0-0.4-0.1-0.7-0.2-1.1
		c-0.2-0.8-0.5-1.7-0.5-1.7v-1.7c0-0.9-0.6-1.7-0.8-3.2s0-0.9,0-1.5v-1.1l0.8-0.8l1.1-4.6l-0.2-0.9l0.4-0.8l0.4-1.3h0.8L254.2,438z
		 M204.5,459.8c-0.7-0.8-1.2-1.6-1.7-2.5c0,0-2.5-2.8-3.8-4.2s-0.6-0.8-1.3-1s-0.4-1.3-0.9-2.5s0,0,0-2.5v-2.3c0-0.5,0.1-1,0.2-1.5
		l0.2-1l1.3-2.8l-0.6,5.3v2.3c-0.1,0.6-0.2,1.1-0.2,1.7c0.2,0.7,0.4,1.5,0.8,2.1l2.3,2.1l4.4,7.8L204.5,459.8z M206.2,415.2
		l-0.2,2.3v3.4c0,0-3.4,3.2-4.6,2.8s0,0,0-0.6v-4.8c0-0.4,0.1-0.7,0.2-1.1l1.5-1.5l0.9-2.1l2.3,0.6L206.2,415.2z M223.7,396.6
		l-1.3,1.5l-1.1,0.8l-3,1.7c-1.2,0.4-2.4,0.7-3.6,0.9c-1.3,0-2.6-0.2-3.8-0.6c-0.6-0.4-1.1-0.9-1.5-1.5v-1.9c0-1,1.3-1.7,1.3-1.7
		h3.8l2.8,0.4l4-0.4l0.8-0.2C224.5,394.5,223.7,396.6,223.7,396.6L223.7,396.6z M241.9,494.6l-1.3,1.7c-1.6,1.1-3.1,2.3-4.4,3.6
		c-1.1,1.3-1.3,2.1-2.3,3.4s-0.6,0.9-0.6,0.9L233,505c-0.2,1.1-0.4,2.2-0.9,3.2c-0.3,0.8-0.4,1.7-0.4,2.5l-0.6,1.9l-0.9,2.3v3.8
		l-1.9,6.1l-0.2,2.1l-1.1,0.8l-1.7,6.2v-0.6c0.1-1,0.3-2,0.6-3c0.4-1.9,0,0,0-1.5v-2.3c0.4-1.1,1-2.2,1.7-3.2
		c0.1-0.1,0.2-0.2,0.2-0.3c0.4-0.6,0.5-1.3,0.4-2v-2.5c0-1.5,0.6-1.9,0.6-3c0.2-1.7,0.7-3.3,1.3-4.9c0.6-1.9,0-1-0.1-3.6
		s0.4-0.8,0.6-1.8c0.5-1.2,1.1-2.4,1.7-3.6c0.7-1.1,1.6-2.1,2.8-2.8c0.9-0.4,0.9-0.8,0.9-0.8l1.7-1.3l1.3-1.7l0.9-3l3-0.8
		L241.9,494.6z M270.6,487.9l1.3,1.9l1.3,0.2l0.2,1.5c0,0-0.9,0.2,0,1.5s1.7,2.4,1.7,2.4l0.6,1.1c0.3,0.5,0.6,1,0.9,1.5
		c0.2,0.6,2.3,4,2.3,4c0.4,1.7,1.7,4.9,1.7,4.9l-3.2-4.4l-1.7-3.8l-1.3-1.7l-1.4-2.8l-1.1-1.5L270,490l-1.5-2.3l-1.1-2.5
		L270.6,487.9z"/>
</g>
<g id="arm">
	<g>
		
			<rect x="281.2" y="436.6" transform="matrix(0.9387 -0.3448 0.3448 0.9387 -133.7026 129.5003)" class="st4" width="32" height="8"/>
		<polygon class="st4" points="305.9,433.7 312,427.2 317.5,442.2 308.6,441.2 		"/>
		
			<linearGradient id="SVGID_1_" gradientUnits="userSpaceOnUse" x1="261.0706" y1="45.9432" x2="335.1107" y2="59.5132" gradientTransform="matrix(0.986 -0.1668 -0.1668 -0.986 61.0437 519.0836)">
			<stop  offset="1.000000e-02" style="stop-color:#FFE000"/>
			<stop  offset="1" style="stop-color:#FFE53F;stop-opacity:0"/>
		</linearGradient>
		<polygon class="st5" points="312,427.4 368.4,358.8 400,448.3 317.4,442.6 		"/>
		<path class="st4" d="M252.4,442.4c0,0,16.9-1.9,23.7-4s11.1-5.6,14.3-5.5c13.3,0.8,14,4.7,14,4.7s-12.5-1.9-14.8,2.5
			s0.5,3,4.6,3.3s10.7,1.5,5.6,3.1c-6.7,2.1-8.1,2.4-13.1,0.2s-5.8-4.1-9.2-0.5s-14.1,6.5-14.1,6.5L238,459l-4.3-13.5L252.4,442.4z"
			/>
		
			<rect x="130.7" y="466.9" transform="matrix(0.995 -9.950372e-02 9.950372e-02 0.995 -47.0897 16.7376)" class="st6" width="27.1" height="27.1"/>
	</g>
</g>
</svg>
